<svg id="Camada_1" data-name="Camada 1" xmlns="http://www.w3.org/2000/svg" viewBox="0 0 100 100">
  <defs>
    <style>
      .cls-1 {
        fill: #191919;
      }
    </style>
  </defs>
  <title>emailIcon</title>
  <g>
    <path class="cls-1" d="M50,1A49,49,0,1,0,99,50,49,49,0,0,0,50,1ZM94.66323,50.1583a44.56438,44.56438,0,1,1-89.12645-.576c.01969-24.27569,20.22-44.188,44.79974-44.16105A44.61757,44.61757,0,0,1,94.66323,50.1583Z"/>
    <path class="cls-1" d="M50.21264,30.55729q12.1812-.00189,24.36241-.001c.3232,0,.64779-.01457.96926.00992.34672.02642.8061-.10529.96566.31217.15832.41413-.255.648-.50583.882q-3.72146,3.47174-7.46373,6.92112Q59.72368,46.81773,50.90053,54.947c-1.49854,1.38088-2.14323,1.36928-3.5703-.04881Q35.72473,43.36588,24.12151,31.83128c-.2527-.25121-.67624-.49849-.52524-.88032.2279-.57628.83142-.38294,1.28437-.38358Q37.54663,30.54934,50.21264,30.55729Z"/>
    <path class="cls-1" d="M50.09686,69.41438q-12.54176.00149-25.0835-.00984c-.53087-.001-1.289.26349-1.5224-.36761-.19084-.51611.47868-.87241.82048-1.24355C29.18093,62.50567,34.074,57.23962,38.933,51.9423c.69536-.75808,1.19772-.72185,1.88559-.01332q2.48925,2.56406,5.06615,5.04273c2.11258,2.04232,4.27389,2.05843,6.42628.07375,1.95966-1.807,3.93-3.60387,5.83934-5.46308.81546-.79409,1.38012-.81063,2.18868.041C65.56665,57.12917,70.83885,62.5927,76.09024,68.076c.26909.281.76492.53666.62369.96269-.17285.52144-.75231.36324-1.17008.36408q-9.08818.01841-18.1764.01053Q53.73216,69.41381,50.09686,69.41438Z"/>
    <path class="cls-1" d="M79.0647,49.78475q0,7.87414-.00739,15.74826c-.00091.42778.17352,1.03477-.25256,1.23414-.53725.25139-.83024-.36958-1.14447-.69527-5.21357-5.40359-10.404-10.82952-15.62894-16.22211-.70352-.72609-.66733-1.1904.06849-1.86447C67.42813,43.10409,72.72447,38.188,78.036,33.28845c.22243-.20519.43274-.57749.80388-.3806.346.18352.21063.57908.211.88636q.00991,7.99526.00476,15.99054Z"/>
    <path class="cls-1" d="M21.14871,49.8844q-.00092-7.75684.00676-15.51368c.00093-.42435-.19562-1.0071.24876-1.23072.5561-.27982.84177.338,1.16014.65375q7.18521,7.1257,14.34473,14.27737c1.10907,1.10647,1.10439,1.21838.0557,2.35487q-7.10773,7.70279-14.22725,15.39462c-.359.38673-.69,1.14652-1.28733.88965-.576-.24769-.28775-1.01892-.28973-1.55464C21.14173,60.06527,21.14931,54.97482,21.14871,49.8844Z"/>
  </g>
</svg>
