<svg id="Camada_1" data-name="Camada 1" xmlns="http://www.w3.org/2000/svg" viewBox="0 0 79.83085 100">
  <defs>
    <style>
      .cls-1 {
        fill: #dc2c00;
      }

      .cls-2 {
        fill: #fec300;
      }

      .cls-3 {
        fill: #fe9000;
      }
    </style>
  </defs>
  <title>Website Portfolio</title>
  <g>
    <path class="cls-1" d="M21.33921,40.31768A55.01248,55.01248,0,0,1,40.85184,1.67817c.55814-.48487.97693-1.16983,1.825-.14812,9.51734,11.46607,19.456,22.5973,28.214,34.66968C76.55891,44.01291,79.735,52.79915,78.90058,62.594,77.62332,77.58805,69.9871,88.394,56.67,95.262a2.84589,2.84589,0,0,1-.69385.15886,4.99632,4.99632,0,0,1-1.898-.46546,57.94813,57.94813,0,0,1-13.24466-8.16893c-2.19724-1.853-2.219-2.04521-.9606-4.60606,5.49412-11.18083,3.47329-25.058-5.22846-33.54648a29.92563,29.92563,0,0,0-11.4016-7.23326,4.379,4.379,0,0,1-1.766-.84153C21.43017,40.47932,21.3847,40.3985,21.33921,40.31768Z"/>
    <path class="cls-2" d="M25.7203,96.3197C4.03781,88.13513-5.63681,62.06043,5.37167,41.5361a2.39982,2.39982,0,0,1,1.74792-1.31673,30.51353,30.51353,0,0,1,14.21958.09838l.10079.05175a2.01713,2.01713,0,0,1,.3918,1.5216,51.97109,51.97109,0,0,0,3.89962,22.748A57.39512,57.39512,0,0,0,37.46028,82.528c1.9081,2.03634,2.03457,2.519.21069,4.69926C34.38753,91.15235,30.77459,94.69786,25.7203,96.3197Z"/>
    <path class="cls-3" d="M25.7203,96.3197c2.02057-1.46579,4.35523-2.4246,6.29-4.0518a41.8609,41.8609,0,0,0,6.09082-6.27266c.80725-1.0332.44233-1.74393-.39412-2.59866a55.253,55.253,0,0,1-16.39056-36.834c-.09065-2.0858.02264-4.13075.12338-6.1933,11.32648,3.39018,18.603,10.76886,21.29733,22.28724a28.07639,28.07639,0,0,1-3.02042,20.618,1.48563,1.48563,0,0,0,.36378,2.23086A56.3281,56.3281,0,0,0,55.22041,94.977a7.426,7.426,0,0,1,.75536.44394,36.58254,36.58254,0,0,1-20.20118,3.36885A34.52137,34.52137,0,0,1,25.7203,96.3197Z"/>
  </g>
</svg>
