<svg id="Camada_1" data-name="Camada 1" xmlns="http://www.w3.org/2000/svg" viewBox="0 0 100 100">
  <defs>
    <style>
      .cls-1 {
        fill: #191919;
      }
    </style>
  </defs>
  <title>Website Portfolio</title>
  <path class="cls-1" d="M100,55.56544c-.34558,2.19759-.54464,4.41723-1.00446,6.59819a51.10512,51.10512,0,0,1-9.85872,21.06044A48.95,48.95,0,0,1,66.44893,99.67326c-2.535.90079-4.108-.1995-4.12285-2.95256-.02612-4.82978.0172-9.66017-.0375-14.48948a11.37519,11.37519,0,0,0-2.80036-7.88c-.7693-.84213.2134-.75165.52789-.789a34.8741,34.8741,0,0,0,5.64745-1.07771c4.96374-1.44492,9.39829-3.78768,12.32916-8.35486a25.496,25.496,0,0,0,3.59352-11.29081,26.08715,26.08715,0,0,0-.72027-10.6759,18.16541,18.16541,0,0,0-3.48588-6.41242,1.73343,1.73343,0,0,1-.41188-1.8791,17.87917,17.87917,0,0,0-.54007-11.829,1.117,1.117,0,0,0-1.17154-.82667,8.66737,8.66737,0,0,0-3.069.469,35.40813,35.40813,0,0,0-8.65238,4.31926,2.3368,2.3368,0,0,1-2.09413.35526A44.9882,44.9882,0,0,0,38.68848,26.35a2.45242,2.45242,0,0,1-2.18021-.381,32.011,32.011,0,0,0-10.00485-4.58926c-.063-.01644-.12512-.03741-.1888-.05026-2.08463-.42064-2.46984-.19967-3.07526,1.848a17.681,17.681,0,0,0-.05954,10.89439,1.34434,1.34434,0,0,1-.28524,1.4513c-3.98587,4.68519-5.00715,10.21462-4.47612,16.22753a32.34237,32.34237,0,0,0,2.18733,9.47769A17.60163,17.60163,0,0,0,28.635,70.15009a29.50116,29.50116,0,0,0,10.9522,3.345c.12908.01594.26043.01681.388.04019.28631.05246.66524.04443.789.31085.142.30557-.18708.53244-.378.74789a10.04851,10.04851,0,0,0-2.33761,5.18374,1.487,1.487,0,0,1-1.09858,1.34276c-3.676,1.19054-7.30426,1.7727-10.67429-.87213A11.26247,11.26247,0,0,1,23.415,76.875a11.04174,11.04174,0,0,0-6.23875-5.2855,5.05633,5.05633,0,0,0-2.87725-.18861c-.84578.21-.97263.4919-.52983,1.235A3.85642,3.85642,0,0,0,15.13351,74.04c2.6419,1.51521,4.10551,4,5.32666,6.69187.35591.78457.62976,1.615,1.04719,2.3623,1.67287,2.99486,4.3532,4.35238,7.58132,4.789a25.23444,25.23444,0,0,0,7.76733-.06417c.76241-.13323.91869.18526.91928.83648.00262,2.86462.05145,5.72974.01283,8.59368-.02847,2.11172-1.695,3.23958-3.76059,2.547A46.3909,46.3909,0,0,1,23.29087,94.618,51.70284,51.70284,0,0,1,3.81442,71.021,47.81376,47.81376,0,0,1,.26619,56.65546,52.478,52.478,0,0,1,2.15057,36.2179a50.67933,50.67933,0,0,1,20.743-28.09257A44.95023,44.95023,0,0,1,40.22139.93053C59.55311-2.43959,75.81826,3.32086,88.6416,18.598A49.40744,49.40744,0,0,1,99.62833,43.90775c.14486,1.01787.24876,2.04186.37167,3.063Z"/>
</svg>
