<svg id="Camada_1" data-name="Camada 1" xmlns="http://www.w3.org/2000/svg" viewBox="0 0 100 99.9995">
  <defs>
    <style>
      .cls-1 {
        fill: #f8e320;
      }
    </style>
  </defs>
  <title>Website Portfolio</title>
  <g>
    <path class="cls-1" d="M49.97919.00357q16.56535,0,33.13069.00269A16.55253,16.55253,0,0,1,99.992,16.84813q.01614,33.1307.00017,66.26139A16.57585,16.57585,0,0,1,83.13929,99.991q-33.13068.01737-66.26139.00031A16.55311,16.55311,0,0,1,.00752,83.13426Q-.00788,50.00363.00717,16.873A16.5193,16.5193,0,0,1,16.8485.00656Q33.41381-.01258,49.97919.00357ZM69.5676,39.66242A20.29506,20.29506,0,0,0,61.442,41.26018C55.76783,43.79842,53.177,48.74365,54.508,54.52206c.8177,3.54989,3.30026,5.667,6.32011,7.32853,2.75394,1.51524,5.78433,2.29876,8.71813,3.33812A18.46707,18.46707,0,0,1,74.767,67.75986a5.30823,5.30823,0,0,1,2.15559,5.12479c-.266,2.16732-1.69515,3.31676-3.647,3.94338a12.34889,12.34889,0,0,1-3.18694.54253c-4.37429.21751-8.14329-1.38664-11.57592-3.89273-.91572-.66857-1.3475-.53732-1.91518.33508-.82553,1.26866-1.75725,2.468-2.63852,3.70065-1.16088,1.6237-1.18558,1.66373.44236,2.79933a24.21115,24.21115,0,0,0,21.74362,3.52573c4.892-1.472,8.10683-4.91639,8.78794-10.08906.71827-5.45484-1.01157-9.98813-5.99529-12.92943A41.121,41.121,0,0,0,70.8675,57.631a30.80634,30.80634,0,0,1-6.0969-2.5519,4.05085,4.05085,0,0,1-2.344-4.01652c.18148-1.77676,1.43971-2.67989,2.9523-3.2961a7.50752,7.50752,0,0,1,1.49185-.432c4.2588-.76677,8.16379.3542,11.8219,2.42011,1.03155.58257,1.45789.43331,2.00067-.51351a43.87119,43.87119,0,0,1,2.60533-4.03477c.65413-.8967.46792-1.35627-.41449-1.93678C78.81982,40.59568,74.26885,39.81273,69.5676,39.66242ZM46.05026,57.49114h.05011c0-5.15179-.03386-10.304.0242-15.45511.01422-1.26112-.4054-1.699-1.64484-1.6127-1.24943.087-2.50965.0185-3.76514.019-2.42336.001-2.42739.00125-2.42672,2.36744.00223,8.00911.01788,16.01823.00282,24.02731-.00293,1.556-.06995,3.11592-.19618,4.66681a6.05375,6.05375,0,0,1-6.11009,5.85941,8.94917,8.94917,0,0,1-7.70665-3.26324c-.794-.94244-1.37352-.89054-2.21369-.127-1.08784.98857-2.23544,1.91763-3.41055,2.80153-.68933.51851-.83324.94079-.29239,1.69024A13.95149,13.95149,0,0,0,25.669,84.01027a21.45434,21.45434,0,0,0,8.713.76635c6.9685-.764,11.49023-5.46714,11.64694-12.4805C46.13918,67.36343,46.05026,62.4263,46.05026,57.49114Z"/>
    <path d="M25.669,84.05323a21.45391,21.45391,0,0,0,8.71306.76633c6.96845-.764,11.49018-5.46713,11.64691-12.4805.11022-4.93266.02132-9.86982.02132-14.805h.05013c0-5.15183-.03389-10.304.02417-15.45514.01422-1.26111-.4054-1.69895-1.64485-1.61271-1.24941.087-2.50967.01853-3.7651.019-2.42338.001-2.42744.00127-2.42674,2.36744.00222,8.0091.0179,16.01822.00279,24.02732-.00292,1.556-.06992,3.11591-.19613,4.66679a6.05378,6.05378,0,0,1-6.11011,5.8594A8.94916,8.94916,0,0,1,24.27775,74.143c-.794-.94242-1.37346-.89051-2.21365-.127-1.08786.98858-2.23542,1.91761-3.41059,2.80152-.6893.51852-.83321.94077-.29239,1.69023A13.95169,13.95169,0,0,0,25.669,84.05323Z"/>
    <path d="M54.40145,80.35583a24.2113,24.2113,0,0,0,21.74364,3.52576c4.892-1.472,8.10681-4.91641,8.78793-10.08906.71823-5.45485-1.01158-9.98816-5.99532-12.92944a41.11993,41.11993,0,0,0-8.0702-3.1892A30.80762,30.80762,0,0,1,64.77058,55.122a4.051,4.051,0,0,1-2.344-4.01654c.18154-1.77674,1.43977-2.67988,2.95232-3.29609a7.50663,7.50663,0,0,1,1.49186-.432c4.25878-.76678,8.1638.3542,11.82192,2.42007,1.03157.58257,1.45786.43333,2.00064-.51347a43.86128,43.86128,0,0,1,2.60536-4.03478c.65415-.8967.46791-1.35627-.41448-1.93678-4.06442-2.67382-8.61534-3.45675-13.31664-3.60707A20.29463,20.29463,0,0,0,61.442,41.30315C55.76786,43.84137,53.177,48.7866,54.508,54.565c.81774,3.54987,3.30025,5.667,6.32008,7.32852,2.754,1.51525,5.78434,2.29875,8.7182,3.33809A18.46776,18.46776,0,0,1,74.767,67.8028a5.30833,5.30833,0,0,1,2.15565,5.12479c-.266,2.16734-1.69517,3.31677-3.647,3.94341a12.35038,12.35038,0,0,1-3.18691.54254c-4.37433.21748-8.14331-1.38666-11.57591-3.89278-.91571-.66855-1.34751-.5373-1.91523.3351-.82554,1.26867-1.75723,2.468-2.63848,3.70064C52.79822,79.18022,52.77353,79.22026,54.40145,80.35583Z"/>
  </g>
</svg>
