<svg id="Camada_1" data-name="Camada 1" xmlns="http://www.w3.org/2000/svg" viewBox="0 0 100 100">
  <defs>
    <style>
      .cls-1 {
        fill: #191919;
      }
    </style>
  </defs>
  <title>Website Portfolio</title>
  <path class="cls-1" d="M99,45.78906v8.23047c-.04762.28157-.11283.56145-.14023.845a44.91436,44.91436,0,0,1-2.819,12.15933Q86.93274,90.20718,63.02618,97.33521A52.72787,52.72787,0,0,1,54.01953,99H45.78906c-.24907-.04978-.496-.1195-.74752-.14643a48.15831,48.15831,0,0,1-22.96035-8.50438A48.53043,48.53043,0,0,1,2.16179,60.98612C1.6142,58.68683,1.31537,56.35361,1,54.01953V45.78906c.06346-.40774.13989-.81395.18842-1.22347A49.407,49.407,0,0,1,5.70319,28.83968,48.76591,48.76591,0,0,1,20.90446,10.47117,48.23013,48.23013,0,0,1,38.64162,2.24375c2.3619-.557,4.75513-.88653,7.14744-1.24375h8.23047c.34528.0526.689.11992,1.03606.15555a48.07472,48.07472,0,0,1,12.5973,3.03383A48.71916,48.71916,0,0,1,89.70008,21.13679a47.85977,47.85977,0,0,1,8.07405,17.59946C98.3156,41.06824,98.6459,43.42879,99,45.78906ZM44.06612,56.41641l.034,0q0,6.21938.00246,12.43876c.00172,1.14512.109,1.25077,1.27138,1.25556q3.49236.01442,6.98482.002c1.3345-.003,1.39529-.0669,1.39588-1.41.00247-5.67718.02384-11.3545-.01028-17.03147a6.177,6.177,0,0,1,1.67271-4.44293c2.43749-2.61823,7.31379-2.24494,8.50049,1.73a19.56287,19.56287,0,0,1,.60346,5.58482c.02362,4.75213.00431,9.50446.01187,14.25669.00188,1.18223.13913,1.31484,1.33121,1.31992q3.44452.01464,6.88914.00059c1.20434-.0044,1.30665-.10812,1.3074-1.31747.00366-5.93234.0121-11.8647-.00508-17.797a18.36293,18.36293,0,0,0-1.08246-6.2796C71.1064,39.58685,66.545,37.38768,61.539,37.87774a11.06793,11.06793,0,0,0-8.05653,4.4337c-.15067.19858-.28827.49407-.57044.45076-.3782-.05806-.30991-.43731-.34444-.7021-.11114-.85265-.2348-1.70658-.28074-2.56393-.03992-.74522-.39874-.98119-1.10022-.97394-2.13668.0221-4.274.028-6.41048-.00379-.72984-.01086-.93689.27507-.89769.9697.09338,1.65441.1693,3.31184.17963,4.9685C44.08293,48.44309,44.06612,52.4298,44.06612,56.41641Zm-6.20029-2.01376c0-4.87961-.01485-9.75931.01361-14.63876.00515-.88484-.24907-1.269-1.19476-1.25055-2.42294.04721-4.84778.04-7.27107.00309-.86694-.0132-1.176.29875-1.17415,1.17162q.03058,14.63879.00076,29.27764c-.00176.88365.34508,1.178,1.1932,1.167,2.35967-.03053,4.72-.00512,7.08007-.01154,1.269-.00344,1.35036-.08717,1.35126-1.36673Q37.86982,61.57854,37.86583,54.40265ZM33.17251,24.73957c-3.04-.01268-5.11461,1.88076-5.14425,4.695a4.63392,4.63392,0,0,0,4.9751,4.84791c3.07314.01072,5.122-1.86327,5.133-4.69491A4.61294,4.61294,0,0,0,33.17251,24.73957Z"/>
</svg>
