<svg id="Camada_1" data-name="Camada 1" xmlns="http://www.w3.org/2000/svg" viewBox="0 0 110 100">
  <defs>
    <style>
      .cls-1 {
        fill: #61dafb;
      }
    </style>
  </defs>
  <title>Website Portfolio</title>
  <g>
    <path class="cls-1" d="M1.1,50.90184V48.93419c.0146-.071.03219-.14139.04334-.21292a10.16728,10.16728,0,0,1,1.1593-3.349A17.90855,17.90855,0,0,1,6.504,40.4182a38.12994,38.12994,0,0,1,8.60334-5.38777,61.97386,61.97386,0,0,1,8.90919-3.38308c.19366-.05736.24973-.15131.20117-.35629a68.70139,68.70139,0,0,1-1.26984-6.86173,51.68024,51.68024,0,0,1-.46709-6.17514,33.71928,33.71928,0,0,1,.49-6.30462,17.57537,17.57537,0,0,1,2.36275-6.523A8.887,8.887,0,0,1,32.21641,1.15a14.41,14.41,0,0,1,5.23432.52787,28.60934,28.60934,0,0,1,7.39632,3.2985,55.1042,55.1042,0,0,1,9.97138,7.90907c.24469.24043.24643.24549.49618-.00848.81495-.82868,1.66253-1.62024,2.52716-2.392A46.70734,46.70734,0,0,1,67.98426,3.3522a22.411,22.411,0,0,1,6.0366-2.11476c.53594-.09658,1.07535-.1572,1.61273-.23744h1.78965c.10389.0152.20743.03376.3117.0451a8.655,8.655,0,0,1,5.34172,2.493A13.17481,13.17481,0,0,1,86.18,8.85985,28.28517,28.28517,0,0,1,87.4726,16.992a52.43987,52.43987,0,0,1-.75051,9.94661c-.23791,1.482-.5441,2.94971-.8749,4.41179-.04578.20239-.00611.29707.19075.35933.763.24129,1.52073.50058,2.28222.74716a54.84673,54.84673,0,0,1,5.9205,2.33855,45.72365,45.72365,0,0,1,5.84262,3.17785,27.4454,27.4454,0,0,1,5.4883,4.51753A14.07506,14.07506,0,0,1,108.2104,46.477a11.49682,11.49682,0,0,1,.6896,2.45716v1.96765a11.76637,11.76637,0,0,1-.65471,2.41274,14.2684,14.2684,0,0,1-2.66794,4.13076,30.0281,30.0281,0,0,1-7.22981,5.68456A50.309,50.309,0,0,1,92.525,66.05409a59.25641,59.25641,0,0,1-6.24616,2.29532c-.21249.06379-.25185.16133-.203.373a63.65138,63.65138,0,0,1,1.22459,6.92622,50.72975,50.72975,0,0,1,.35464,6.37258,31.2806,31.2806,0,0,1-.91248,7.56739,15.88026,15.88026,0,0,1-2.61891,5.73655,8.91427,8.91427,0,0,1-4.358,3.19969A14.2361,14.2361,0,0,1,77.58115,99H75.47568c-.06881-.01307-.13712-.03153-.2065-.03842a18.62629,18.62629,0,0,1-4.7736-1.17051,34.30208,34.30208,0,0,1-7.50091-4.09722,57.9377,57.9377,0,0,1-7.5895-6.43935c-.1585-.15788-.2553-.17855-.4252-.00686q-1.471,1.48656-3.05209,2.84728a43.31994,43.31994,0,0,1-10.84143,7.098A22.46624,22.46624,0,0,1,36.34431,98.707,20.86161,20.86161,0,0,1,34.15586,99H32.83994c-.39987-.04976-.8016-.08712-1.19928-.15143a8.763,8.763,0,0,1-4.3212-1.93145,11.63449,11.63449,0,0,1-3.24851-4.699,23.99961,23.99961,0,0,1-1.59012-7.8725,50.43149,50.43149,0,0,1,.85983-11.65428c.22832-1.2429.494-2.47791.78545-3.70655.04825-.20342.029-.3063-.19442-.373C22.237,68.1063,20.57153,67.50809,18.9283,66.846a51.40391,51.40391,0,0,1-7.54045-3.73645A30.37258,30.37258,0,0,1,4.774,57.88026,15.20623,15.20623,0,0,1,1.80292,53.4407,12.03763,12.03763,0,0,1,1.1,50.90184ZM54.90439,67.68352c1.17454-.02881,2.34948-.006,3.52457-.04474,1.98029-.0653,3.96075-.11156,5.93669-.28A.62012.62012,0,0,0,64.89,67.029c1.88-2.96767,3.68142-5.98458,5.361-9.08021q2.06657-3.80877,3.924-7.73064a.5703.5703,0,0,0,.00281-.55947c-.67031-1.33091-1.31508-2.67582-1.99452-4.00161q-2.05806-4.01585-4.37128-7.88018Q66.35738,35.338,64.82153,32.9538a.50956.50956,0,0,0-.41086-.29312c-.72609-.04449-1.45069-.1199-2.17714-.15255-1.50658-.06773-3.01361-.13885-4.52116-.16579-1.98139-.03543-3.96314-.03887-5.94508.01957-2.04216.06021-4.0827.14138-6.12052.2944a.53518.53518,0,0,0-.45306.267c-.93255,1.44479-1.84887,2.90043-2.73636,4.37554-1.3617,2.26332-2.642,4.57576-3.86584,6.92206-.94806,1.81766-1.86225,3.6534-2.72624,5.51607a.62673.62673,0,0,0,.00914.58936c.80823,1.69757,1.63336,3.3861,2.49766,5.05362q1.71456,3.308,3.60973,6.50825,1.58519,2.67625,3.2896,5.27245a.40526.40526,0,0,0,.32722.23588c.47255.02437.94385.07958,1.4165.096C49.64418,67.58393,52.27267,67.70412,54.90439,67.68352ZM5.67565,49.74626a3.40861,3.40861,0,0,0,.0263.35449,9.79456,9.79456,0,0,0,1.31443,3.51579,10.921,10.921,0,0,0,2.60245,2.82469,36.56311,36.56311,0,0,0,6.85708,4.24009,64.44611,64.44611,0,0,0,8.456,3.24252c.511.16438.50957.15794.66593-.3637.59693-1.99149,1.26489-3.95782,1.974-5.90861.91048-2.50488,1.89583-4.97811,2.97645-7.40959a.50363.50363,0,0,0-.00291-.44232q-1.61439-3.63511-2.96927-7.38295c-.70787-1.95135-1.37589-3.91762-1.96525-5.91141-.076-.257-.165-.32546-.42436-.246A57.88939,57.88939,0,0,0,15.33758,40.213a32.15218,32.15218,0,0,0-5.89764,3.834,13.37221,13.37221,0,0,0-2.96567,3.29955A5.16136,5.16136,0,0,0,5.67565,49.74626Zm98.64865.17206a4.80732,4.80732,0,0,0-.0535-.69028,6.65022,6.65022,0,0,0-1.58015-3.04112,20.99562,20.99562,0,0,0-4.95274-4.15543,44.79277,44.79277,0,0,0-6.33017-3.327,61.40927,61.40927,0,0,0-6.49358-2.38237c-.37533-.11579-.37364-.10576-.49641.27628-.38568,1.20017-.757,2.40571-1.16593,3.59733q-1.65619,4.82659-3.74072,9.47211a.54358.54358,0,0,0,.00236.49057q.5139,1.13726,1.01159,2.28239,1.235,2.83785,2.30986,5.74526c.65366,1.76832,1.27072,3.54956,1.82487,5.354.06064.19746.15023.2615.34672.19531.4-.13474.80827-.24332,1.20768-.37984a58.31767,58.31767,0,0,0,7.6334-3.18219,36.2644,36.2644,0,0,0,5.79773-3.58947,15.79087,15.79087,0,0,0,3.64065-3.7186A5.39864,5.39864,0,0,0,104.3243,49.91832ZM27.05369,82.14838a25.94921,25.94921,0,0,0,.64567,6.22843,10.79848,10.79848,0,0,0,1.55342,3.70867,3.84034,3.84034,0,0,0,1.54632,1.44609,8.6509,8.6509,0,0,0,4.962.49271,13.0318,13.0318,0,0,0,2.85829-1.00254,38.73174,38.73174,0,0,0,6.23874-3.38666,46.57694,46.57694,0,0,0,6.91725-5.82269c.172-.17073.16142-.26055.0092-.43258q-2.73316-3.089-5.242-6.37744-1.79716-2.356-3.47071-4.80863a.4832.4832,0,0,0-.40542-.24982c-.30629-.0122-.61238-.03745-.91772-.06663-2.23484-.21361-4.46384-.47838-6.683-.82886-2.037-.3217-4.06285-.70767-6.07929-1.14586-.242-.05258-.34587-.00336-.402.25425-.2398,1.101-.48184,2.20106-.68576,3.3102A48.17854,48.17854,0,0,0,27.05369,82.14838Zm55.9949-1.44313c.01129-.882-.0639-2.03419-.14957-3.18753a53.3642,53.3642,0,0,0-1.25421-7.47057c-.07732-.35267-.11565-.36569-.455-.28407-1.17876.28348-2.36486.53121-3.55468.75733-1.76731.33587-3.53978.63919-5.3225.87739-1.51282.20214-3.02558.40407-4.548.50689a.92383.92383,0,0,0-.7898.46529,101.15775,101.15775,0,0,1-6.35338,8.63471c-.65914.8043-1.33225,1.59647-2.01,2.38394-.16587.19272-.17307.327.0226.49087.18394.154.35249.3281.52561.49582a49.20891,49.20891,0,0,0,8.2721,6.58564,23.21731,23.21731,0,0,0,6.63944,2.97446,8.92991,8.92991,0,0,0,3.44362.23993,3.40226,3.40226,0,0,0,1.74223-.63965,9.31661,9.31661,0,0,0,2.7842-3.97312A11.908,11.908,0,0,0,82.654,86.777,47.02876,47.02876,0,0,0,83.04859,80.70525ZM33.35147,5.87192a5.3756,5.3756,0,0,0-.9279.05926,4.27544,4.27544,0,0,0-2.87172,1.5436,8.95128,8.95128,0,0,0-1.59134,3.17549,24.49525,24.49525,0,0,0-.88353,7.25891,42.949,42.949,0,0,0,.24129,4.44146,62.71774,62.71774,0,0,0,1.3332,7.70749c.06009.25587.16.31134.40138.25749,2.51135-.56017,5.0352-1.04719,7.57807-1.43181q2.88922-.437,5.79428-.72362a.797.797,0,0,0,.64718-.38214c.97324-1.44911,1.99754-2.85951,3.044-4.25245q2.63091-3.5019,5.53038-6.7672c.13352-.15073.1545-.24354-.00311-.397a55.99583,55.99583,0,0,0-6.30957-5.3527A31.24774,31.24774,0,0,0,37.1586,6.57069,11.72,11.72,0,0,0,33.35147,5.87192ZM82.85,17.86977a25.578,25.578,0,0,0-.29511-4.35407,14.92587,14.92587,0,0,0-1.57114-5.09417A4.68542,4.68542,0,0,0,76.5908,5.75831a11.4841,11.4841,0,0,0-3.2876.53668,26.501,26.501,0,0,0-6.65272,3.28862,53.02059,53.02059,0,0,0-8.14226,6.7196c-.25526.25218-.25342.25212-.02282.51393q2.22,2.52045,4.28071,5.18273Q64.97546,24.8537,67.00175,27.85a.59161.59161,0,0,0,.46773.29906c1.50217.13293,2.999.31834,4.4929.52733,1.66776.23331,3.33034.50423,4.98374.8294,1.35194.26588,2.6997.55534,4.0463.84923.24988.05454.35884-.02132.40822-.26569.1476-.7304.31084-1.45748.45188-2.1892A50.34891,50.34891,0,0,0,82.85,17.86977ZM70.8258,66.73085c.36615-.04974.76572-.10419,1.16534-.15828q3.87423-.52437,7.68906-1.4004c.63776-.14663.62631-.15134.41147-.81167Q78.917,60.75,77.51646,57.22773c-.20181-.50431-.41532-1.00357-.62532-1.5043-.02348-.056-.0367-.13674-.1072-.14171-.07436-.00524-.087.07866-.11567.13116-.065.11869-.12634.23954-.1873.36053q-1.82917,3.63072-3.85368,7.1479c-.62879,1.09464-1.2648,2.18458-1.92622,3.25842-.04021.06527-.11693.13368-.07828.21882C70.65332,66.76579,70.73281,66.72662,70.8258,66.73085Zm-31.519.11978c.159.00088.19531-.06131.10768-.20025-.05764-.0914-.112-.185-.16853-.27719-.88024-1.43676-1.727-2.89474-2.5601-4.36131-1.13623-2.00011-2.21162-4.03524-3.251-6.09113-.03394-.06712-.04858-.1804-.14539-.16783-.0747.0097-.07759.11308-.10406.17787-.483,1.18183-.93574,2.37631-1.37343,3.5769-.66127,1.81386-1.2806,3.6427-1.82548,5.49841-.05953.20275-.00838.27154.18571.31251,2.18237.46068,4.37191.87762,6.57959,1.18613C37.603,66.62368,38.4551,66.73554,39.3068,66.85063Zm9.62755,5.50755a.39317.39317,0,0,0,.11933.23424q2.79021,3.82225,5.90881,7.36036c.1678.191.27.15429.41726-.01623q3.03963-3.5203,5.74066-7.32623c.04828-.06836.14956-.13827.09458-.23293-.04285-.07377-.14617-.03856-.22235-.03549-.70937.02857-1.41839.07658-2.128.08806q-3.76114.06087-7.52259.00219C50.54584,72.41914,49.74994,72.38388,48.93435,72.35818ZM61.14419,27.65029a1.05163,1.05163,0,0,0-.05659-.11859c-1.84475-2.5601-3.79553-5.02908-5.87658-7.38673-.14445-.16365-.22762-.1356-.35175.01178-.39812.47271-.8082.93454-1.20818,1.40559q-2.4011,2.82771-4.60694,5.82219c-.04994.06768-.15376.13736-.10686.22971.0459.09039.15992.04619.24316.04375,1.05127-.03079,2.10225-.08336,3.15367-.095,2.73491-.03036,5.4701-.05617,8.20352.086C60.72753,27.65888,60.91831,27.65029,61.14419,27.65029Zm9.69594,5.67748c-.06889-.00018-.15051-.02918-.18018.0323-.05813.12043.04744.20148.10065.28862q2.76888,4.53349,5.21223,9.26435c.204.39251.40762.78526.61455,1.1761.03652.069.05835.17779.14532.17727.10811-.00064.114-.12505.146-.20309,1.18222-2.88276,2.23947-5.81351,3.13964-8.80494.06086-.20223-.0106-.2581-.17716-.295-1.95435-.43306-3.91264-.84436-5.88922-1.15473C72.91219,33.64538,71.87175,33.487,70.84013,33.32777ZM33.282,44.34615a1.54564,1.54564,0,0,0,.2524-.42362c.57388-1.10621,1.13386-2.22044,1.72284-3.3179,1.27664-2.37883,2.60566-4.72584,4.02231-7.01847.04037-.06532.11789-.13749.06371-.22-.05169-.07869-.14488-.041-.22055-.02952-.91951.13894-1.83917.277-2.75809.42q-3.05733.476-6.07832,1.15831c-.24892.05575-.2979.15634-.21722.39281.12584.3688.22709.74655.34585,1.11807q1.16077,3.631,2.55832,7.17106C33.06885,43.83809,33.17075,44.07655,33.282,44.34615Z"/>
    <path class="cls-1" d="M55.03747,39.95012a10.05851,10.05851,0,1,1-9.71614,9.97623A9.8515,9.8515,0,0,1,55.03747,39.95012Z"/>
  </g>
</svg>
