<svg id="Camada_1" data-name="Camada 1" xmlns="http://www.w3.org/2000/svg" viewBox="0 0 100 100">
  <defs>
    <style>
      .cls-1 {
        fill: #cb6699;
      }

      .cls-2 {
        fill: #fefdfd;
      }
    </style>
  </defs>
  <title>Website Portfolio</title>
  <g>
    <circle class="cls-1" cx="50" cy="50" r="49"/>
    <path class="cls-1" d="M46.18193,1.12727h7.63636c.141.243.388.17282.59786.1933,1.77287.173,3.53421.41958,5.28235.76633a48.98007,48.98007,0,0,1,39.157,46.33223,47.75842,47.75842,0,0,1-8.11408,28.52339A48.14791,48.14791,0,0,1,58.48629,98.12489c-1.61.30091-3.23881.501-4.85891.74784H46.18193c-.11855-.19712-.32175-.17291-.5065-.18978a46.2692,46.2692,0,0,1-16.626-4.55258Q6.72548,82.98324,1.85992,58.47149a39.65627,39.65627,0,0,0-.73254-4.4624V45.99091c.27351-.16729.1831-.45072.20783-.689A49.02587,49.02587,0,0,1,41.61372,1.84718,38.88164,38.88164,0,0,0,46.18193,1.12727ZM63.77724,18.98088c4.02921-.02191,6.82223.5397,8.81779,1.61571a5.48642,5.48642,0,0,1,3.0699,6.01624,14.43388,14.43388,0,0,1-4.12054,8.01239,28.58214,28.58214,0,0,1-16.806,8.67687c-4.43026.73574-8.72333.69717-12.16964-2.85685a.479.479,0,0,0-.68478-.09291.64264.64264,0,0,0-.19983.69158,4.4612,4.4612,0,0,0,.959,1.95012,9.56222,9.56222,0,0,0,6.05124,3.53883C58.00378,47.82,66.47077,45.79566,73.6893,39.587A20.9692,20.9692,0,0,0,80.624,28.52279c1.51221-6.19616-.81266-10.93645-6.62351-13.55051a16.33491,16.33491,0,0,0-1.687-.65743,30.40229,30.40229,0,0,0-16.49-.44289A67.021,67.021,0,0,0,30.43522,25.959,32.64761,32.64761,0,0,0,20.905,36.62351c-2.87662,5.45512-2.75549,8.89445,1.35927,14.1553a33.42728,33.42728,0,0,0,6.81486,6.227c2.77352,2.02626,5.57944,4.00844,8.38492,5.99047.668.47193.58633.70254-.11571,1.05931a56.73615,56.73615,0,0,0-7.18949,4.32186,24.80561,24.80561,0,0,0-5.5936,5.01614c-2.34273,3.0826-3.24487,6.46321-1.65761,10.18918A4.52564,4.52564,0,0,0,25.81915,86.419a13.06062,13.06062,0,0,0,6.60973.11152A16.45762,16.45762,0,0,0,44.21565,65.54275c-.14444-.48465-.383-.86849.38753-1.01255a19.73,19.73,0,0,1,11.51876.998,8.48138,8.48138,0,0,1,4.59572,4.239,5.0702,5.0702,0,0,1-1.68757,6.66853c-.42146.31678-1.43461.5023-1.00078,1.19309.38882.61912,1.16993.02279,1.70111-.25425,3.37486-1.76009,4.57437-5.39889,2.9695-9.1692A11.56049,11.56049,0,0,0,54.53409,61.474a24.18824,24.18824,0,0,0-11.80209.19894c-.4157.09537-.73849.22053-1.1074-.1732a61.70191,61.70191,0,0,0-7.21364-6.085,31.782,31.782,0,0,1-5.96122-5.60625A9.624,9.624,0,0,1,27.029,40.25129a17.04754,17.04754,0,0,1,4.31114-6.44992c5.11-5.04129,11.28165-8.43928,17.77734-11.29218A38.6646,38.6646,0,0,1,63.77724,18.98088Z"/>
    <path class="cls-2" d="M63.77724,18.98088a38.6646,38.6646,0,0,0-14.6598,3.52831c-6.49569,2.8529-12.6673,6.25089-17.77734,11.29218A17.04754,17.04754,0,0,0,27.029,40.25129a9.624,9.624,0,0,0,1.42078,9.55719A31.782,31.782,0,0,0,34.411,55.41473a61.70191,61.70191,0,0,1,7.21364,6.085c.36891.39373.6917.26857,1.1074.1732A24.18824,24.18824,0,0,1,54.53409,61.474a11.56049,11.56049,0,0,1,8.16583,6.73142c1.60487,3.77031.40536,7.40911-2.9695,9.1692-.53118.277-1.31229.87337-1.70111.25425-.43383-.69079.57932-.87631,1.00078-1.19309a5.0702,5.0702,0,0,0,1.68757-6.66853,8.48138,8.48138,0,0,0-4.59572-4.239,19.73,19.73,0,0,0-11.51876-.998c-.77054.14406-.532.5279-.38753,1.01255A16.45762,16.45762,0,0,1,32.42888,86.53054a13.06062,13.06062,0,0,1-6.60973-.11152,4.52564,4.52564,0,0,1-2.91152-2.83622c-1.58726-3.726-.68512-7.10658,1.65761-10.18918a24.80561,24.80561,0,0,1,5.5936-5.01614,56.73615,56.73615,0,0,1,7.18949-4.32186c.702-.35677.78371-.58738.11571-1.05931-2.80548-1.982-5.6114-3.96421-8.38492-5.99047a33.42728,33.42728,0,0,1-6.81486-6.227C18.1495,45.518,18.02837,42.07863,20.905,36.62351A32.64761,32.64761,0,0,1,30.43522,25.959,67.021,67.021,0,0,1,55.82353,13.872a30.40229,30.40229,0,0,1,16.49.44289,16.33491,16.33491,0,0,1,1.687.65743c5.81085,2.61406,8.13572,7.35435,6.62351,13.55051A20.9692,20.9692,0,0,1,73.6893,39.587c-7.21853,6.20867-15.68552,8.233-24.99491,6.94587A9.56222,9.56222,0,0,1,42.64315,42.994a4.4612,4.4612,0,0,1-.959-1.95012.64264.64264,0,0,1,.19983-.69158.479.479,0,0,1,.68478.09291c3.44631,3.554,7.73938,3.59259,12.16964,2.85685a28.58214,28.58214,0,0,0,16.806-8.67687,14.43388,14.43388,0,0,0,4.12054-8.01239,5.48642,5.48642,0,0,0-3.0699-6.01624C70.59947,19.52058,67.80645,18.959,63.77724,18.98088Zm-22.989,50.6957a19.64252,19.64252,0,0,0-.32183-2.653c-.106-.54851-.27692-.68-.81722-.39744A35.14776,35.14776,0,0,0,32.479,71.463a13.30293,13.30293,0,0,0-4.36747,6.56775c-.79646,3.073.63938,4.47644,3.72905,3.69645C36.79942,80.47534,40.78187,75.19318,40.78827,69.67658Z"/>
    <path class="cls-1" d="M40.78827,69.67658c-.0064,5.5166-3.98885,10.79876-8.94772,12.05061-3.08967.78-4.52551-.6235-3.72905-3.69645A13.30293,13.30293,0,0,1,32.479,71.463a35.14776,35.14776,0,0,1,7.17025-4.83688c.5403-.28251.71117-.15107.81722.39744A19.64252,19.64252,0,0,1,40.78827,69.67658Z"/>
  </g>
</svg>
