<svg id="Camada_1" data-name="Camada 1" xmlns="http://www.w3.org/2000/svg" viewBox="0 0 100 100">
  <defs>
    <style>
      .cls-1 {
        fill: #3178c6;
      }
    </style>
  </defs>
  <title>Website Portfolio</title>
  <path class="cls-1" d="M50.00875,98.9886q-19.9084,0-39.81681-.00648a9.46711,9.46711,0,0,1-9.15771-9.282q-.0321-19.626-.01623-39.25205C1.01618,37.2072,1.07849,23.96588.98317,10.72568A9.88113,9.88113,0,0,1,8.62939,1.15314,9.304,9.304,0,0,1,10.499,1q39.53444.00232,79.06885.01222A9.45108,9.45108,0,0,1,99.007,10.48871q.00929,39.48735.01008,78.97471a9.4367,9.4367,0,0,1-9.568,9.5349q-19.72016.00459-39.44029.001ZM61.731,84.0419c0,1.12957.03573,2.26068-.01266,3.38818a1.23836,1.23836,0,0,0,.95124,1.39307,30.568,30.568,0,0,0,20.38129.48006,9.97415,9.97415,0,0,0,6.88983-6.78806c1.7649-5.88017.605-11.29066-5.15733-14.86347a55.03183,55.03183,0,0,0-7.17268-3.51636,14.047,14.047,0,0,1-5.14036-3.22569,3.406,3.406,0,0,1,.15217-5.035,5.84051,5.84051,0,0,1,3.26889-1.547A18.17967,18.17967,0,0,1,87.98,56.42406c.8394.47307.86483.12121.86451-.52521-.0011-2.19238-.04691-4.386.01507-6.57656a1.3785,1.3785,0,0,0-1.20341-1.58342A32.856,32.856,0,0,0,71.825,47.28049c-4.17717.8913-7.68942,2.95988-9.36768,7.092-2.26929,5.58731-.837,11.62479,5.19049,15.25312,2.51084,1.51145,5.25075,2.53415,7.87243,3.80812a10.8472,10.8472,0,0,1,4.37931,3.30791,3.73549,3.73549,0,0,1-.34115,4.673,7.26984,7.26984,0,0,1-5.06922,1.91822,18.57087,18.57087,0,0,1-11.92686-3.29314c-.197-.13177-.38933-.39868-.657-.26068-.26683.13756-.16968.44668-.17139.68591C61.72538,81.65719,61.73,82.84955,61.731,84.0419ZM35.92947,72.74106q0,8.09589.00063,16.19181c.00038,1.333.004,1.33492,1.37018,1.33592q3.34191.00243,6.68382.00024c1.51178-.00056,1.51379-.00147,1.51388-1.48316q.001-16.0506.00146-32.1012c.00024-1.379.04665-1.42324,1.43292-1.42452,3.23179-.003,6.46373-.01866,9.69526.01054.78374.00709,1.14449-.20173,1.123-1.05782-.04714-1.88159-.0355-3.76551-.00461-5.64776.01193-.72642-.249-.99624-.98583-.99522q-16.05012.02229-32.10027-.00141c-.74368-.00118-.99181.26769-.97892.992.03236,1.81943.007,3.63983.011,5.45984.00269,1.23134.0074,1.23581,1.2846,1.23683,3.23177.0026,6.46356-.00215,9.69534.00227,1.21429.00165,1.25555.04515,1.25616,1.28986Q35.93211,64.64515,35.92947,72.74106Z"/>
</svg>
