<svg id="Camada_1" data-name="Camada 1" xmlns="http://www.w3.org/2000/svg" viewBox="0 0 99.48321 100">
  <defs>
    <style>
      .cls-1 {
        fill: #191919;
      }
    </style>
  </defs>
  <title>whatsappIcon</title>
  <g>
    <path class="cls-1" d="M98.48837,48.7659c-.00724,24.80494-17.89376,45.389-41.45928,48.96666-10.11992,1.53638-19.508-.42263-28.47255-5.03006a4.23946,4.23946,0,0,0-3.39288-.37017c-7.45035,2.15869-14.92384,4.2378-22.39752,6.315-.5097.14168-1.13647.63768-1.5951.127-.44774-.49853.07766-1.0835.25785-1.58866C3.80577,90.52209,6.18406,83.85866,8.63043,77.2204A2.96558,2.96558,0,0,0,8.307,74.356,46.59377,46.59377,0,0,1,1.13185,48.82965,47.154,47.154,0,0,1,11.63739,19.55577C20.56586,8.44184,32.16455,2.19353,46.43352,1.13344A48.63149,48.63149,0,0,1,97.71035,41.09082,50.49353,50.49353,0,0,1,98.48837,48.7659ZM13.21576,87.57583c4.37532-1.23621,8.27961-2.3,12.15623-3.45665a4.01256,4.01256,0,0,1,3.53822.45988,39.30189,39.30189,0,0,0,27.98407,5.20652A40.81625,40.81625,0,1,0,9.12661,46.17763a39.94923,39.94923,0,0,0,7.53607,27.13325,3.213,3.213,0,0,1,.43933,3.4507C15.75973,80.1974,14.59346,83.702,13.21576,87.57583Z"/>
    <path class="cls-1" d="M23.58985,36.7187a16.04718,16.04718,0,0,1,4.49347-11.60388c1.431-1.57911,5.39906-2.37406,7.332-1.50445a3.00527,3.00527,0,0,1,1.48541,1.80506c1.46926,3.7117,2.91068,7.4344,4.36877,11.15053a2.93763,2.93763,0,0,1-.13083,2.31747,16.66253,16.66253,0,0,1-3.0906,4.49221,2.42547,2.42547,0,0,0-.41705,3.10428A35.80038,35.80038,0,0,0,55.01085,62.56781a1.92266,1.92266,0,0,0,2.55618-.66666c1.17344-1.54362,2.36693-3.07275,3.50852-4.63964,1.261-1.73079,1.86914-2.02059,3.719-1.11046,3.37665,1.66127,6.68834,3.45433,10.03249,5.18206A2.45584,2.45584,0,0,1,76.07339,63.771c.14359,8.51152-7.54741,12.67936-13.74653,12.0682-6.10792-.60219-11.54606-3.21176-16.51959-6.59817A59.5713,59.5713,0,0,1,25.10564,44.26,15.82151,15.82151,0,0,1,23.58985,36.7187Z"/>
  </g>
</svg>
